# xmcd
#
# Track frame offsets: 
#        150
#        18770
#        38065
#        58615
#        79500
#        101382
#        119807
#        133530
#        153562
#        174140
#        193827
#        213580
#        232800
#        251025
#
# Disc length: 3586 seconds
#
# Revision: 1
# Processed by: cddbd v1.5.2PL0 Copyright (c) Steve Scherf et al.
# Submitted via: ExactAudioCopy v1.0b1
#
DISCID=b20e000e
DTITLE=周慧敏 - 敏感地带
DYEAR=1996
DGENRE=Pop
TTITLE0=流言
TTITLE1=尽在不言中
TTITLE2=心事重重
TTITLE3=没有人傻的像我
TTITLE4=处处留情
TTITLE5=保护
TTITLE6=留住秋色
TTITLE7=最美的泪水
TTITLE8=感激
TTITLE9=离开忧郁的习惯
TTITLE10=近情情怯
TTITLE11=从情人变成朋友
TTITLE12=I'VE NEVER BEEN TO ME
TTITLE13=真爱在明天
EXTD=
EXTT0=
EXTT1=
EXTT2=
EXTT3=
EXTT4=
EXTT5=
EXTT6=
EXTT7=
EXTT8=
EXTT9=
EXTT10=
EXTT11=
EXTT12=
EXTT13=
PLAYORDER=
